<?xml version="1.0" encoding="UTF-8" standalone="no"?>
<svg
   width="210mm"
   height="297mm"
   viewBox="0 0 793.7007874 1122.519685"
   version="1.1"
   id="svg863"
   inkscape:version="1.2.1 (9c6d41e, 2022-07-14)"
   sodipodi:docname="vinyl-drawing.svg"
   xml:space="preserve"
   xmlns:inkscape="http://www.inkscape.org/namespaces/inkscape"
   xmlns:sodipodi="http://sodipodi.sourceforge.net/DTD/sodipodi-0.dtd"
   xmlns:xlink="http://www.w3.org/1999/xlink"
   xmlns="http://www.w3.org/2000/svg"
   xmlns:svg="http://www.w3.org/2000/svg"
   xmlns:rdf="http://www.w3.org/1999/02/22-rdf-syntax-ns#"
   xmlns:cc="http://creativecommons.org/ns#"
   xmlns:dc="http://purl.org/dc/elements/1.1/"><defs
     id="defs857"><inkscape:path-effect
       effect="powerclip"
       id="path-effect3937"
       is_visible="true"
       lpeversion="1"
       inverse="true"
       flatten="false"
       hide_clip="false"
       message="Use fill-rule evenodd on &lt;b&gt;fill and stroke&lt;/b&gt; dialog if no flatten result after convert clip to paths." /><inkscape:path-effect
       effect="powerclip"
       id="path-effect3929"
       is_visible="true"
       lpeversion="1"
       inverse="true"
       flatten="false"
       hide_clip="false"
       message="Use fill-rule evenodd on &lt;b&gt;fill and stroke&lt;/b&gt; dialog if no flatten result after convert clip to paths." /><inkscape:path-effect
       effect="powerclip"
       id="path-effect3921"
       is_visible="true"
       lpeversion="1"
       inverse="true"
       flatten="false"
       hide_clip="false"
       message="Use fill-rule evenodd on &lt;b&gt;fill and stroke&lt;/b&gt; dialog if no flatten result after convert clip to paths." /><inkscape:path-effect
       effect="powerclip"
       id="path-effect3079"
       is_visible="true"
       lpeversion="1"
       inverse="true"
       flatten="false"
       hide_clip="false"
       message="Use fill-rule evenodd on &lt;b&gt;fill and stroke&lt;/b&gt; dialog if no flatten result after convert clip to paths." /><inkscape:path-effect
       effect="powerclip"
       id="path-effect3071"
       is_visible="true"
       lpeversion="1"
       inverse="true"
       flatten="false"
       hide_clip="false"
       message="Use fill-rule evenodd on &lt;b&gt;fill and stroke&lt;/b&gt; dialog if no flatten result after convert clip to paths." /><inkscape:path-effect
       effect="powerclip"
       id="path-effect3502"
       is_visible="true"
       lpeversion="1"
       inverse="true"
       flatten="false"
       hide_clip="false"
       message="Use fill-rule evenodd on &lt;b&gt;fill and stroke&lt;/b&gt; dialog if no flatten result after convert clip to paths." /><inkscape:path-effect
       effect="powerclip"
       id="path-effect1372"
       is_visible="true"
       lpeversion="1"
       inverse="true"
       flatten="false"
       hide_clip="false"
       message="Use fill-rule evenodd on &lt;b&gt;fill and stroke&lt;/b&gt; dialog if no flatten result after convert clip to paths." /><linearGradient
       inkscape:collect="always"
       id="linearGradient1118"><stop
         style="stop-color:#b3b3b3;stop-opacity:1;"
         offset="0"
         id="stop1114" /><stop
         style="stop-color:#4d4d4d;stop-opacity:1"
         offset="1"
         id="stop1116" /></linearGradient><linearGradient
       inkscape:collect="always"
       id="linearGradient869"><stop
         style="stop-color:#b3b3b3;stop-opacity:1"
         offset="0"
         id="stop865" /><stop
         style="stop-color:#333333;stop-opacity:1"
         offset="1"
         id="stop867" /></linearGradient><radialGradient
       inkscape:collect="always"
       xlink:href="#linearGradient869"
       id="radialGradient960"
       cx="1885.3337"
       cy="-448.00006"
       fx="1885.3337"
       fy="-448.00006"
       r="32"
       gradientUnits="userSpaceOnUse"
       gradientTransform="matrix(1.0001611,0.99983614,-0.99999896,1.0000015,-437.63711,-1917.024)" /><radialGradient
       inkscape:collect="always"
       xlink:href="#linearGradient869"
       id="radialGradient970"
       gradientUnits="userSpaceOnUse"
       gradientTransform="matrix(1.0001611,0.99983614,-0.99999896,1.0000015,-357.63711,-1917.024)"
       cx="1885.3337"
       cy="-448.00006"
       fx="1885.3337"
       fy="-448.00006"
       r="32" /><radialGradient
       inkscape:collect="always"
       xlink:href="#linearGradient1118"
       id="radialGradient1120"
       cx="2056"
       cy="-480"
       fx="2056"
       fy="-480"
       r="32"
       gradientUnits="userSpaceOnUse"
       gradientTransform="matrix(1.0000172,0.99998367,-0.99999981,0.99999977,-480.03522,-2055.9666)" /><clipPath
       clipPathUnits="userSpaceOnUse"
       id="clipPath1368"><circle
         style="display:none;fill:#000000;stroke-width:2;stroke-linecap:round;stroke-opacity:0.996404"
         id="circle1370"
         cx="2056"
         cy="-480"
         r="3"
         d="m 2059,-480 a 3,3 0 0 1 -3,3 3,3 0 0 1 -3,-3 3,3 0 0 1 3,-3 3,3 0 0 1 3,3 z" /><path
         id="lpe_path-effect1372"
         style="fill:#000000;stroke-width:2;stroke-linecap:round;stroke-opacity:0.996404"
         class="powerclip"
         d="m 2019,-517 h 74 v 74 h -74 z m 40,37 a 3,3 0 0 0 -3,-3 3,3 0 0 0 -3,3 3,3 0 0 0 3,3 3,3 0 0 0 3,-3 z" /></clipPath><radialGradient
       inkscape:collect="always"
       xlink:href="#linearGradient1118"
       id="radialGradient1120-3"
       cx="2056"
       cy="-480"
       fx="2056"
       fy="-480"
       r="32"
       gradientUnits="userSpaceOnUse"
       gradientTransform="matrix(1.0000172,0.99998367,-0.99999981,0.99999977,-480.03522,-2055.9666)" /><clipPath
       clipPathUnits="userSpaceOnUse"
       id="clipPath1368-5"><circle
         style="display:none;fill:#000000;stroke-width:2;stroke-linecap:round;stroke-opacity:0.996404"
         id="circle1370-3"
         cx="2056"
         cy="-480"
         r="3"
         d="m 2059,-480 a 3,3 0 0 1 -3,3 3,3 0 0 1 -3,-3 3,3 0 0 1 3,-3 3,3 0 0 1 3,3 z" /><path
         id="lpe_path-effect1372-5"
         style="fill:#000000;stroke-width:2;stroke-linecap:round;stroke-opacity:0.996404"
         class="powerclip"
         d="m 2019,-517 h 74 v 74 h -74 z m 40,37 a 3,3 0 0 0 -3,-3 3,3 0 0 0 -3,3 3,3 0 0 0 3,3 3,3 0 0 0 3,-3 z" /></clipPath><inkscape:path-effect
       effect="powerclip"
       id="path-effect1372-6"
       is_visible="true"
       lpeversion="1"
       inverse="true"
       flatten="false"
       hide_clip="false"
       message="Use fill-rule evenodd on &lt;b&gt;fill and stroke&lt;/b&gt; dialog if no flatten result after convert clip to paths." /><clipPath
       clipPathUnits="userSpaceOnUse"
       id="clipath_lpe_path-effect1372-6"><circle
         style="display:none;fill:#000000;stroke-width:2;stroke-linecap:round;stroke-opacity:0.996404"
         id="circle1439"
         cx="2056"
         cy="-480"
         r="3"
         d="m 2059,-480 a 3,3 0 0 1 -3,3 3,3 0 0 1 -3,-3 3,3 0 0 1 3,-3 3,3 0 0 1 3,3 z" /><path
         id="lpe_path-effect1372-6"
         style="fill:#000000;stroke-width:2;stroke-linecap:round;stroke-opacity:0.996404"
         class="powerclip"
         d="m 2019,-517 h 74 v 74 h -74 z m 40,37 a 3,3 0 0 0 -3,-3 3,3 0 0 0 -3,3 3,3 0 0 0 3,3 3,3 0 0 0 3,-3 z" /></clipPath><clipPath
       clipPathUnits="userSpaceOnUse"
       id="clipPath3494"><g
         id="g3500"
         style="display:none"><rect
           style="display:inline;fill:#000000;stroke:none;stroke-width:8;stroke-linecap:round;stroke-dasharray:none;stroke-opacity:0.996404"
           id="rect3496"
           width="4"
           height="4"
           x="2244"
           y="-499"
           ry="0"
           d="m 2244,-499 h 4 v 4 h -4 z" /><rect
           style="display:inline;fill:#000000;stroke:none;stroke-width:8;stroke-linecap:round;stroke-dasharray:none;stroke-opacity:0.996404"
           id="rect3498"
           width="4"
           height="12"
           x="2244"
           y="-493"
           d="m 2244,-493 h 4 v 12 h -4 z" /></g><path
         id="lpe_path-effect3502"
         class="powerclip"
         d="m 2227,-509 h 38 v 38 h -38 z m 17,10 v 4 h 4 v -4 z m 0,6 v 12 h 4 v -12 z" /></clipPath><clipPath
       clipPathUnits="userSpaceOnUse"
       id="clipPath3067"><circle
         style="display:none;fill:none;stroke:#000000;stroke-width:2;stroke-dasharray:none;stroke-opacity:0.948548"
         id="circle3069"
         cx="2221"
         cy="-443"
         r="7"
         d="m 2228,-443 a 7,7 0 0 1 -7,7 7,7 0 0 1 -7,-7 7,7 0 0 1 7,-7 7,7 0 0 1 7,7 z" /><path
         id="lpe_path-effect3071"
         style="fill:none;stroke:#000000;stroke-width:2;stroke-dasharray:none;stroke-opacity:0.948548"
         class="powerclip"
         d="m 2204,-460 h 22 v 22 h -22 z m 24,17 a 7,7 0 0 0 -7,-7 7,7 0 0 0 -7,7 7,7 0 0 0 7,7 7,7 0 0 0 7,-7 z" /></clipPath><clipPath
       clipPathUnits="userSpaceOnUse"
       id="clipPath3075"><circle
         style="display:none;fill:none;stroke:#000000;stroke-width:2;stroke-dasharray:none;stroke-opacity:0.948548"
         id="circle3077"
         cx="2227"
         cy="-437"
         r="7"
         d="m 2234,-437 a 7,7 0 0 1 -7,7 7,7 0 0 1 -7,-7 7,7 0 0 1 7,-7 7,7 0 0 1 7,7 z" /><path
         id="lpe_path-effect3079"
         style="fill:none;stroke:#000000;stroke-width:2;stroke-dasharray:none;stroke-opacity:0.948548"
         class="powerclip"
         d="m 2210,-454 h 22 v 22 h -22 z m 24,17 a 7,7 0 0 0 -7,-7 7,7 0 0 0 -7,7 7,7 0 0 0 7,7 7,7 0 0 0 7,-7 z" /></clipPath><clipPath
       clipPathUnits="userSpaceOnUse"
       id="clipPath3917"><circle
         style="display:none;fill:#333333;fill-opacity:1;stroke:none;stroke-width:2;stroke-dasharray:none;stroke-opacity:1"
         id="circle3919"
         cx="2215"
         cy="-449"
         r="1"
         d="m 2216,-449 a 1,1 0 0 1 -1,1 1,1 0 0 1 -1,-1 1,1 0 0 1 1,-1 1,1 0 0 1 1,1 z" /><path
         id="lpe_path-effect3921"
         style="fill:#333333;fill-opacity:1;stroke:none;stroke-width:2;stroke-dasharray:none;stroke-opacity:1"
         class="powerclip"
         d="m 2203,-461 h 24 v 24 h -24 z m 13,12 a 1,1 0 0 0 -1,-1 1,1 0 0 0 -1,1 1,1 0 0 0 1,1 1,1 0 0 0 1,-1 z" /></clipPath><clipPath
       clipPathUnits="userSpaceOnUse"
       id="clipPath3925"><circle
         style="display:none;fill:#333333;fill-opacity:1;stroke:none;stroke-width:2;stroke-dasharray:none;stroke-opacity:1"
         id="circle3927"
         cx="2221"
         cy="-443"
         r="1"
         d="m 2222,-443 a 1,1 0 0 1 -1,1 1,1 0 0 1 -1,-1 1,1 0 0 1 1,-1 1,1 0 0 1 1,1 z" /><path
         id="lpe_path-effect3929"
         style="fill:#333333;fill-opacity:1;stroke:none;stroke-width:2;stroke-dasharray:none;stroke-opacity:1"
         class="powerclip"
         d="m 2209,-455 h 24 v 24 h -24 z m 13,12 a 1,1 0 0 0 -1,-1 1,1 0 0 0 -1,1 1,1 0 0 0 1,1 1,1 0 0 0 1,-1 z" /></clipPath><clipPath
       clipPathUnits="userSpaceOnUse"
       id="clipPath3933"><circle
         style="display:none;fill:#333333;fill-opacity:1;stroke:none;stroke-width:2;stroke-dasharray:none;stroke-opacity:1"
         id="circle3935"
         cx="2212"
         cy="-478"
         r="1"
         d="m 2213,-478 a 1,1 0 0 1 -1,1 1,1 0 0 1 -1,-1 1,1 0 0 1 1,-1 1,1 0 0 1 1,1 z" /><path
         id="lpe_path-effect3937"
         style="fill:#333333;fill-opacity:1;stroke:none;stroke-width:2;stroke-dasharray:none;stroke-opacity:1"
         class="powerclip"
         d="m 2200,-490 h 24 v 24 h -24 z m 13,12 a 1,1 0 0 0 -1,-1 1,1 0 0 0 -1,1 1,1 0 0 0 1,1 1,1 0 0 0 1,-1 z" /></clipPath></defs><sodipodi:namedview
     id="base"
     pagecolor="#ffffff"
     bordercolor="#666666"
     borderopacity="1.0"
     inkscape:pageopacity="0.0"
     inkscape:pageshadow="2"
     inkscape:zoom="11.313709"
     inkscape:cx="2203.875"
     inkscape:cy="-479.59515"
     inkscape:document-units="px"
     inkscape:current-layer="layer2"
     inkscape:document-rotation="0"
     showgrid="true"
     showborder="false"
     inkscape:pagecheckerboard="false"
     inkscape:window-width="1920"
     inkscape:window-height="1012"
     inkscape:window-x="0"
     inkscape:window-y="0"
     inkscape:window-maximized="1"
     inkscape:object-nodes="true"
     inkscape:snap-global="true"
     inkscape:showpageshadow="0"
     inkscape:deskcolor="#d1d1d1"
     showguides="true"><inkscape:grid
       type="xygrid"
       id="grid1426"
       empspacing="8" /></sodipodi:namedview><metadata
     id="metadata860"><rdf:RDF><cc:Work
         rdf:about=""><dc:format>image/svg+xml</dc:format><dc:type
           rdf:resource="http://purl.org/dc/dcmitype/StillImage" /></cc:Work></rdf:RDF></metadata><g
     inkscape:groupmode="layer"
     id="layer4"
     inkscape:label="BG"
     style="display:inline"><rect
       style="opacity:1;fill:#d45500;fill-opacity:1;stroke-width:32;stroke-linecap:round;stroke-opacity:0.996404"
       id="rect35231"
       width="1866.6373"
       height="1825.4648"
       x="-888.04425"
       y="-977.12463" /><rect
       style="fill:#4d4d4d;stroke-width:32;stroke-linecap:round;stroke-opacity:0.996404"
       id="rect399"
       width="64"
       height="64"
       x="1864"
       y="-640"
       ry="2"
       inkscape:export-filename="./src/assets/tracks-button.png"
       inkscape:export-xdpi="96"
       inkscape:export-ydpi="96" /><rect
       style="fill:#4d4d4d;stroke-width:32;stroke-linecap:round;stroke-opacity:0.996404"
       id="rect366"
       width="64"
       height="64"
       x="1936"
       y="-640"
       ry="2"
       inkscape:export-filename="./src/assets/artwork-button.png"
       inkscape:export-xdpi="96"
       inkscape:export-ydpi="96" /><rect
       style="fill:#4d4d4d;stroke-width:32;stroke-linecap:round;stroke-opacity:0.996404"
       id="rect5866"
       width="64"
       height="64"
       x="2008"
       y="-640"
       ry="2"
       inkscape:export-filename="./src/assets/production-button.png"
       inkscape:export-xdpi="96"
       inkscape:export-ydpi="96" /><rect
       style="fill:#4d4d4d;stroke-width:32;stroke-linecap:round;stroke-opacity:0.996404"
       id="rect6116"
       width="64"
       height="64"
       x="2096"
       y="-640"
       ry="2"
       inkscape:export-filename="./src/assets/collection-button.png"
       inkscape:export-xdpi="96"
       inkscape:export-ydpi="96" /><rect
       style="fill:#4d4d4d;stroke-width:32;stroke-linecap:round;stroke-opacity:0.996404"
       id="rect6295"
       width="64"
       height="64"
       x="2184"
       y="-640"
       ry="2"
       inkscape:export-filename="./src/assets/player-button.png"
       inkscape:export-xdpi="96"
       inkscape:export-ydpi="96" /><rect
       style="fill:#4d4d4d;stroke-width:32;stroke-linecap:round;stroke-opacity:0.996404"
       id="rect6454"
       width="64"
       height="64"
       x="2264"
       y="-640"
       ry="2"
       inkscape:export-filename="./src/assets/gear-button.png"
       inkscape:export-xdpi="96"
       inkscape:export-ydpi="96" /><rect
       style="fill:url(#radialGradient960);stroke-width:32;stroke-linecap:round;stroke-opacity:0.996404;fill-opacity:1"
       id="rect687"
       width="64"
       height="64"
       x="1864"
       y="-512"
       ry="2"
       inkscape:export-filename="./src/assets/cover-front.png"
       inkscape:export-xdpi="96"
       inkscape:export-ydpi="96" /><rect
       style="fill:url(#radialGradient970);fill-opacity:1;stroke-width:32;stroke-linecap:round;stroke-opacity:0.996404"
       id="rect962"
       width="64"
       height="64"
       x="1944"
       y="-512"
       ry="2"
       inkscape:export-filename="./src/assets/cover-rear.png"
       inkscape:export-xdpi="96"
       inkscape:export-ydpi="96" /><path
       style="fill:url(#radialGradient1120);fill-opacity:1;stroke-width:2;stroke-linecap:round;stroke-opacity:0.996404"
       id="circle1090"
       inkscape:export-filename="src/assets/a-side.png"
       inkscape:export-xdpi="96"
       inkscape:export-ydpi="96"
       clip-path="url(#clipPath1368)"
       inkscape:path-effect="#path-effect1372"
       sodipodi:type="arc"
       sodipodi:cx="2056"
       sodipodi:cy="-480"
       sodipodi:rx="32"
       sodipodi:ry="32"
       d="m 2088,-480 a 32,32 0 0 1 -32,32 32,32 0 0 1 -32,-32 32,32 0 0 1 32,-32 32,32 0 0 1 32,32 z" /><path
       style="display:inline;fill:url(#radialGradient1120-3);fill-opacity:1;stroke-width:2;stroke-linecap:round;stroke-opacity:0.996404"
       id="circle1090-2"
       inkscape:export-filename="src/assets/b-side.png"
       inkscape:export-xdpi="96"
       inkscape:export-ydpi="96"
       clip-path="url(#clipath_lpe_path-effect1372-6)"
       inkscape:path-effect="#path-effect1372-6"
       sodipodi:type="arc"
       sodipodi:cx="2056"
       sodipodi:cy="-480"
       sodipodi:rx="32"
       sodipodi:ry="32"
       d="m 2088,-480 a 32,32 0 0 1 -32,32 32,32 0 0 1 -32,-32 32,32 0 0 1 32,-32 32,32 0 0 1 32,32 z"
       transform="translate(80)" /><path
       d="m 2122.7951,-420.65745 v 6 h -6 v 2 h 6 v 6 h 2 v -6 h 6 v -2 h -6 v -6 z"
       fill="#e0e0e0"
       id="path1787" /><rect
       style="fill:#ffffff;stroke:none;stroke-width:8;stroke-linecap:round;stroke-dasharray:none;stroke-opacity:0.996404"
       id="rect2736"
       width="4"
       height="28"
       x="2276"
       y="-504" /><rect
       style="fill:#0093ff;fill-opacity:1;stroke:none;stroke-width:1;stroke-dasharray:none;stroke-opacity:1"
       id="rect1292"
       width="46"
       height="40"
       x="2183"
       y="-462" /></g><g
     inkscape:label="UV"
     inkscape:groupmode="layer"
     id="layer1"
     style="display:inline" /><g
     inkscape:groupmode="layer"
     id="layer2"
     inkscape:label="Images"
     style="display:inline;opacity:1"><path
       style="fill:#ffffff;stroke-width:2;stroke-linecap:round;stroke-opacity:0.996404"
       id="path1897"
       inkscape:export-filename="src/assets/info.png"
       inkscape:export-xdpi="48"
       inkscape:export-ydpi="48"
       clip-path="url(#clipPath3494)"
       inkscape:path-effect="#path-effect3502"
       sodipodi:type="arc"
       sodipodi:cx="2246"
       sodipodi:cy="-490"
       sodipodi:rx="14"
       sodipodi:ry="14"
       d="m 2260,-490 a 14,14 0 0 1 -14,14 14,14 0 0 1 -14,-14 14,14 0 0 1 14,-14 14,14 0 0 1 14,14 z" /><image
       width="663.01501"
       height="663.01501"
       preserveAspectRatio="none"
       xlink:href="data/blank-vinyl.png"
       id="image48927"
       x="-2398.4424"
       y="-153.90576"
       style="display:inline"
       inkscape:export-filename="/home/andrew/dev/godot/git/andrew-wilkes/vinyl/src/assets/record45.png"
       inkscape:export-xdpi="72.000008"
       inkscape:export-ydpi="72.000008" /><image
       width="666.7746"
       height="666.7746"
       preserveAspectRatio="none"
       xlink:href="data/blank-vinyl.png"
       id="image48929"
       x="-1714.2743"
       y="-154.62993"
       style="display:inline"
       inkscape:export-filename="/home/andrew/dev/godot/git/andrew-wilkes/vinyl/src/assets/record45.png"
       inkscape:export-xdpi="72.000008"
       inkscape:export-ydpi="72.000008" /><image
       width="666.99958"
       height="665.81274"
       preserveAspectRatio="none"
       xlink:href="data/vinyl45-2.png"
       id="image49045"
       x="-2397.4575"
       y="-151.04399"
       inkscape:export-filename="/home/andrew/dev/godot/git/andrew-wilkes/vinyl/src/assets/record45.png"
       inkscape:export-xdpi="72.000008"
       inkscape:export-ydpi="72.000008" /><image
       width="666.99958"
       height="665.81274"
       preserveAspectRatio="none"
       xlink:href="data/vinyl45-2.png"
       id="image49052"
       x="-1709.4575"
       y="-151.04399"
       inkscape:export-filename="/home/andrew/dev/godot/git/andrew-wilkes/vinyl/src/assets/record45.png"
       inkscape:export-xdpi="72.000008"
       inkscape:export-ydpi="72.000008" /><image
       width="256"
       height="256"
       preserveAspectRatio="none"
       xlink:href="data/cover.png"
       id="image49143"
       x="1014"
       y="-186"
       inkscape:export-filename="/home/andrew/dev/godot/git/andrew-wilkes/vinyl/src/assets/cover.png"
       inkscape:export-xdpi="72.000008"
       inkscape:export-ydpi="72.000008" /><image
       width="256"
       height="256"
       preserveAspectRatio="none"
       xlink:href="data/cover.png"
       id="image49147"
       x="-1526"
       y="-186"
       transform="scale(-1,1)"
       inkscape:export-filename="/home/andrew/dev/godot/git/andrew-wilkes/vinyl/src/assets/cover.png"
       inkscape:export-xdpi="72.000008"
       inkscape:export-ydpi="72.000008" /><rect
       style="opacity:1;fill:#fffff5;fill-opacity:1;stroke-width:32.7545;stroke-linecap:round;stroke-opacity:0.996404"
       id="rect49255"
       width="520"
       height="262.02777"
       x="1010"
       y="71.996582"
       inkscape:export-filename="/home/andrew/dev/godot/git/andrew-wilkes/vinyl/src/assets/cover.png"
       inkscape:export-xdpi="72.000008"
       inkscape:export-ydpi="72.000008" /><rect
       style="display:inline;fill:#94cb00;fill-opacity:1;stroke-width:32;stroke-linecap:round;stroke-opacity:0.996404"
       id="rect200"
       width="11"
       height="11"
       x="1867"
       y="-637"
       ry="2" /><rect
       style="display:inline;fill:#94cb00;fill-opacity:1;stroke-width:32;stroke-linecap:round;stroke-opacity:0.996404"
       id="rect202"
       width="43"
       height="11"
       x="1882"
       y="-637"
       ry="2" /><rect
       style="display:inline;fill:#00d2ac;fill-opacity:1;stroke-width:32;stroke-linecap:round;stroke-opacity:0.996404"
       id="rect371"
       width="11"
       height="11"
       x="1867"
       y="-621"
       ry="2" /><rect
       style="display:inline;fill:#00d2ac;fill-opacity:1;stroke-width:32;stroke-linecap:round;stroke-opacity:0.996404"
       id="rect373"
       width="43"
       height="11"
       x="1882"
       y="-621"
       ry="2" /><rect
       style="display:inline;fill:#00cbeb;fill-opacity:1;stroke-width:32;stroke-linecap:round;stroke-opacity:0.996404"
       id="rect375"
       width="11"
       height="11"
       x="1867"
       y="-605"
       ry="2" /><rect
       style="display:inline;fill:#00cbeb;fill-opacity:1;stroke-width:32;stroke-linecap:round;stroke-opacity:0.996404"
       id="rect377"
       width="43"
       height="11"
       x="1882"
       y="-605"
       ry="2" /><rect
       style="display:inline;fill:#80beff;fill-opacity:1;stroke-width:32;stroke-linecap:round;stroke-opacity:0.996404"
       id="rect379"
       width="11"
       height="11"
       x="1867"
       y="-590"
       ry="2" /><rect
       style="display:inline;fill:#80beff;fill-opacity:1;stroke-width:32;stroke-linecap:round;stroke-opacity:0.996404"
       id="rect381"
       width="43"
       height="11"
       x="1882"
       y="-590"
       ry="2" /><rect
       style="fill:#ff1616;fill-opacity:1;stroke:none;stroke-width:2;stroke-linecap:round;stroke-dasharray:none;stroke-opacity:0.996404"
       id="rect214"
       width="34"
       height="30"
       x="1939"
       y="-637"
       ry="3" /><rect
       style="fill:#ffff00;fill-opacity:1;stroke:none;stroke-width:2;stroke-linecap:round;stroke-dasharray:none;stroke-opacity:0.996404"
       id="rect2710"
       width="34"
       height="30"
       x="1944"
       y="-632"
       ry="3" /><rect
       style="fill:#5c5cff;fill-opacity:1;stroke:none;stroke-width:2;stroke-linecap:round;stroke-dasharray:none;stroke-opacity:0.996404"
       id="rect2712"
       width="34"
       height="30"
       x="1949"
       y="-627"
       ry="3" /><rect
       style="fill:#000000;fill-opacity:1;stroke:none;stroke-width:2;stroke-linecap:round;stroke-dasharray:none;stroke-opacity:0.996404"
       id="rect5736"
       width="27"
       height="7"
       x="1953.5"
       y="-610"
       ry="3" /><rect
       style="fill:#000000;fill-opacity:1;stroke:none;stroke-width:2;stroke-linecap:round;stroke-dasharray:none;stroke-opacity:0.996404"
       id="rect5734"
       width="27"
       height="7"
       x="1953"
       y="-621"
       ry="3" /><circle
       style="fill:#ff7c03;fill-opacity:1;stroke:none;stroke-width:2;stroke-linecap:round;stroke-dasharray:none;stroke-opacity:0.996404"
       id="path2766"
       cx="1979"
       cy="-597"
       r="18" /><circle
       style="fill:#000000;fill-opacity:1;stroke:none;stroke-width:2;stroke-linecap:round;stroke-dasharray:none;stroke-opacity:0.996404"
       id="path4848"
       cx="1979"
       cy="-597"
       r="7" /><circle
       style="fill:#000000;fill-opacity:1;stroke:none;stroke-width:3.39394;stroke-linecap:round;stroke-dasharray:none;stroke-opacity:0.996404"
       id="path5974"
       cx="2040"
       cy="-608"
       r="28" /><rect
       style="fill:#6b5301;fill-opacity:1;stroke:none;stroke-width:2;stroke-linecap:round;stroke-dasharray:none;stroke-opacity:0.996404"
       id="rect5986"
       width="48"
       height="7"
       x="2011.0001"
       y="-627.70862"
       ry="0" /><rect
       style="fill:#6b5301;fill-opacity:1;stroke:none;stroke-width:2;stroke-linecap:round;stroke-dasharray:none;stroke-opacity:0.996404"
       id="rect5990"
       width="8"
       height="8"
       x="1819.0336"
       y="1123.7766"
       transform="rotate(-48.591309)" /><circle
       style="fill:#ffffff;fill-opacity:1;stroke:none;stroke-width:0.75;stroke-linecap:round;stroke-dasharray:none;stroke-opacity:0.996404"
       id="path6046"
       cx="2040"
       cy="-608"
       r="1.5" /><circle
       style="fill:#000000;fill-opacity:1;stroke:none;stroke-width:2.66667;stroke-linecap:round;stroke-dasharray:none;stroke-opacity:0.996404"
       id="circle6411"
       cx="2210"
       cy="-607"
       r="22" /><circle
       style="display:inline;fill:#ffffff;fill-opacity:1;stroke:none;stroke-width:0.75;stroke-linecap:round;stroke-dasharray:none;stroke-opacity:0.996404"
       id="path6046-3"
       cx="2210"
       cy="-607"
       r="1.5" /><rect
       style="fill:#ffffff;fill-opacity:1;stroke:none;stroke-width:2;stroke-linecap:round;stroke-dasharray:none;stroke-opacity:0.996404"
       id="rect6440"
       width="6"
       height="6"
       x="2235"
       y="-631"
       ry="1" /><rect
       style="fill:#ffffff;fill-opacity:1;stroke:none;stroke-width:2;stroke-linecap:round;stroke-dasharray:none;stroke-opacity:0.996404"
       id="rect6442"
       width="2"
       height="37"
       x="2237"
       y="-633"
       ry="1" /><rect
       style="fill:#ffffff;fill-opacity:1;stroke:none;stroke-width:2;stroke-linecap:round;stroke-dasharray:none;stroke-opacity:0.996404"
       id="rect6444"
       width="4"
       height="7"
       x="1934.2283"
       y="-1272.0536"
       ry="1"
       transform="rotate(18.346271)" /><rect
       style="fill:#b6b6b6;fill-opacity:1;stroke:none;stroke-width:2;stroke-linecap:round;stroke-dasharray:none;stroke-opacity:0.996404"
       id="rect6489"
       width="52"
       height="14"
       x="2270"
       y="-633"
       ry="2" /><rect
       style="fill:#b6b6b6;fill-opacity:1;stroke:none;stroke-width:2;stroke-linecap:round;stroke-dasharray:none;stroke-opacity:0.996404"
       id="rect6494"
       width="52"
       height="14"
       x="2270"
       y="-615"
       ry="2" /><rect
       style="fill:#b6b6b6;fill-opacity:1;stroke:none;stroke-width:2;stroke-linecap:round;stroke-dasharray:none;stroke-opacity:0.996404"
       id="rect6496"
       width="52"
       height="14"
       x="2270"
       y="-597"
       ry="2" /><circle
       style="fill:#fefefe;fill-opacity:1;stroke:none;stroke-width:1.85715;stroke-linecap:round;stroke-dasharray:none;stroke-opacity:0.996404"
       id="path6949"
       cx="2277"
       cy="-626"
       r="3.25" /><g
       id="g7227"
       transform="translate(0,0.0625)"><circle
         style="fill:#fefefe;fill-opacity:1;stroke:none;stroke-width:1.21429;stroke-linecap:round;stroke-dasharray:none;stroke-opacity:0.996404"
         id="circle7211"
         cx="2313"
         cy="-626.0625"
         r="2.125" /><circle
         style="fill:#fefefe;fill-opacity:1;stroke:none;stroke-width:1.21429;stroke-linecap:round;stroke-dasharray:none;stroke-opacity:0.996404"
         id="circle7213"
         cx="2306.9583"
         cy="-626.0625"
         r="2.125" /><circle
         style="fill:#fefefe;fill-opacity:1;stroke:none;stroke-width:1.21429;stroke-linecap:round;stroke-dasharray:none;stroke-opacity:0.996404"
         id="circle7215"
         cx="2300.9167"
         cy="-626.0625"
         r="2.125" /><circle
         style="fill:#fefefe;fill-opacity:1;stroke:none;stroke-width:1.21429;stroke-linecap:round;stroke-dasharray:none;stroke-opacity:0.996404"
         id="circle7217"
         cx="2294.875"
         cy="-626.0625"
         r="2.125" /></g><circle
       style="fill:#fefefe;fill-opacity:1;stroke:none;stroke-width:1.21429;stroke-linecap:round;stroke-dasharray:none;stroke-opacity:0.996404"
       id="circle7219"
       cx="2318"
       cy="-608.125"
       r="2.125" /><circle
       style="fill:#fefefe;fill-opacity:1;stroke:none;stroke-width:1.21429;stroke-linecap:round;stroke-dasharray:none;stroke-opacity:0.996404"
       id="circle7221"
       cx="2318"
       cy="-587.125"
       r="2.125" /><rect
       style="fill:#fefefe;fill-opacity:1;stroke:none;stroke-width:2;stroke-linecap:round;stroke-dasharray:none;stroke-opacity:0.996404"
       id="rect7281"
       width="36"
       height="4"
       x="2275"
       y="-610"
       ry="2" /><circle
       style="fill:#fefefe;fill-opacity:1;stroke:none;stroke-width:1.21429;stroke-linecap:round;stroke-dasharray:none;stroke-opacity:0.996404"
       id="circle7283"
       cx="2311.125"
       cy="-587.125"
       r="2.125" /><rect
       style="fill:#fefefe;fill-opacity:1;stroke:none;stroke-width:2;stroke-linecap:round;stroke-dasharray:none;stroke-opacity:0.996404"
       id="rect7285"
       width="30"
       height="3"
       x="2274"
       y="-594"
       ry="1" /><rect
       style="fill:#fefefe;fill-opacity:1;stroke:none;stroke-width:2;stroke-linecap:round;stroke-dasharray:none;stroke-opacity:0.996404"
       id="rect7287"
       width="30"
       height="3"
       x="2274"
       y="-589"
       ry="1.3674175" /><circle
       style="fill:#fefefe;fill-opacity:1;stroke:none;stroke-width:1.21429;stroke-linecap:round;stroke-dasharray:none;stroke-opacity:0.996404"
       id="circle7289"
       cx="2318"
       cy="-593"
       r="2.125" /><circle
       style="fill:#fefefe;fill-opacity:1;stroke:none;stroke-width:1.21429;stroke-linecap:round;stroke-dasharray:none;stroke-opacity:0.996404"
       id="circle7291"
       cx="2311.125"
       cy="-593"
       r="2.125" /><rect
       style="fill:#fefefe;fill-opacity:1;stroke:none;stroke-width:2;stroke-linecap:round;stroke-dasharray:none;stroke-opacity:0.996404"
       id="rect7523"
       width="64"
       height="8"
       x="1864"
       y="-544"
       ry="2"
       inkscape:export-filename="./src/assets/button-bar.png"
       inkscape:export-xdpi="96"
       inkscape:export-ydpi="96" /><circle
       style="fill:#999999;stroke-width:2"
       id="circle557"
       cx="2240"
       cy="-467"
       r="4" /><circle
       style="fill:#0000ff;stroke-width:2"
       id="circle559"
       cx="2241"
       cy="-466"
       r="4" /><path
       style="fill:#cccccc;stroke:none;stroke-width:2;stroke-dasharray:none;stroke-opacity:0.948548;fill-opacity:1"
       id="circle561"
       clip-path="url(#clipPath3917)"
       d="m 2222,-449 a 7,7 0 0 1 -7,7 7,7 0 0 1 -7,-7 7,7 0 0 1 7,-7 7,7 0 0 1 7,7 z"
       sodipodi:type="arc"
       sodipodi:ry="7"
       sodipodi:rx="7"
       sodipodi:cy="-449"
       sodipodi:cx="2215"
       inkscape:path-effect="#path-effect3071;#path-effect3921"
       transform="translate(-15,-41)"
       inkscape:export-filename="src/assets/rec-stack.png"
       inkscape:export-xdpi="66.46154"
       inkscape:export-ydpi="66.46154" /><path
       style="fill:#e5e5e5;stroke:none;stroke-width:2;stroke-dasharray:none;stroke-opacity:0.948548;fill-opacity:1"
       id="circle2831"
       clip-path="url(#clipPath3925)"
       d="m 2228,-443 a 7,7 0 0 1 -7,7 7,7 0 0 1 -7,-7 7,7 0 0 1 7,-7 7,7 0 0 1 7,7 z"
       sodipodi:type="arc"
       sodipodi:ry="7"
       sodipodi:rx="7"
       sodipodi:cy="-443"
       sodipodi:cx="2221"
       inkscape:path-effect="#path-effect3079;#path-effect3929"
       transform="translate(-15,-41)" /><path
       style="fill:#ffffff;stroke:none;stroke-width:2;stroke-dasharray:none;stroke-opacity:0.948548"
       id="circle2833"
       clip-path="url(#clipPath3933)"
       inkscape:path-effect="#path-effect3937"
       sodipodi:type="arc"
       sodipodi:cx="2212"
       sodipodi:cy="-478"
       sodipodi:rx="7"
       sodipodi:ry="7"
       d="m 2219,-478 a 7,7 0 0 1 -7,7 7,7 0 0 1 -7,-7 7,7 0 0 1 7,-7 7,7 0 0 1 7,7 z" /></g><g
     inkscape:groupmode="layer"
     id="layer3"
     inkscape:label="Text"
     style="display:inline"><g
       id="g48923"><image
         width="1365.3333"
         height="1365.3333"
         preserveAspectRatio="none"
         xlink:href="models/disc-uv.png"
         id="image1116"
         x="-725.33325"
         y="-840"
         inkscape:export-filename="/home/andrew/dev/godot/git/andrew-wilkes/vinyl/src/assets/record33.png"
         inkscape:export-xdpi="72.000008"
         inkscape:export-ydpi="72.000008"
         style="display:inline" /><image
         width="663.01501"
         height="663.01501"
         preserveAspectRatio="none"
         xlink:href="data/blank-vinyl.png"
         id="image1044"
         x="-720.40979"
         y="-147.94447"
         style="display:inline;opacity:1"
         inkscape:export-filename="/home/andrew/dev/godot/git/andrew-wilkes/vinyl/src/assets/record33.png"
         inkscape:export-xdpi="72.000008"
         inkscape:export-ydpi="72.000008" /><image
         width="666.7746"
         height="666.7746"
         preserveAspectRatio="none"
         xlink:href="data/blank-vinyl.png"
         id="image2110"
         x="-36.241638"
         y="-148.66864"
         style="display:inline;opacity:1"
         inkscape:export-filename="/home/andrew/dev/godot/git/andrew-wilkes/vinyl/src/assets/record33.png"
         inkscape:export-xdpi="72.000008"
         inkscape:export-ydpi="72.000008" /><rect
         style="display:inline;opacity:1;fill:#202022;fill-opacity:1;stroke-width:32;stroke-linecap:round;stroke-opacity:0.996404"
         id="rect3015"
         width="641.63177"
         height="685.64734"
         x="-107.98061"
         y="-839.80823"
         inkscape:export-filename="/home/andrew/dev/godot/git/andrew-wilkes/vinyl/src/assets/record33.png"
         inkscape:export-xdpi="72.000008"
         inkscape:export-ydpi="72.000008" /><text
         xml:space="preserve"
         style="font-style:normal;font-variant:normal;font-weight:bold;font-stretch:normal;font-size:48px;line-height:1.25;font-family:FreeSans;-inkscape-font-specification:'FreeSans Bold';fill:#d45500"
         x="-463.29681"
         y="150.92822"
         id="text8095"
         inkscape:export-filename="/home/andrew/dev/godot/git/andrew-wilkes/vinyl/src/assets/record33.png"
         inkscape:export-xdpi="72.000008"
         inkscape:export-ydpi="72.000008"><tspan
           id="tspan8093"
           x="-463.29681"
           y="150.92822"
           sodipodi:role="line">Side A</tspan></text><text
         xml:space="preserve"
         style="font-style:normal;font-variant:normal;font-weight:bold;font-stretch:normal;font-size:48px;line-height:1.25;font-family:FreeSans;-inkscape-font-specification:'FreeSans Bold';fill:#d45500"
         x="220.64067"
         y="-221.10376"
         id="text29754"
         inkscape:export-filename="/home/andrew/dev/godot/git/andrew-wilkes/vinyl/src/assets/record33.png"
         inkscape:export-xdpi="72.000008"
         inkscape:export-ydpi="72.000008"
         transform="scale(1,-1)"><tspan
           id="tspan29752"
           x="220.64067"
           y="-221.10376"
           sodipodi:role="line">Side B</tspan></text><text
         xml:space="preserve"
         style="font-style:normal;font-variant:normal;font-weight:normal;font-stretch:normal;font-size:32px;line-height:1.25;font-family:FreeSans;-inkscape-font-specification:FreeSans"
         x="-464.2124"
         y="237.28416"
         id="text37873"
         inkscape:export-filename="/home/andrew/dev/godot/git/andrew-wilkes/vinyl/src/assets/record33.png"
         inkscape:export-xdpi="72.000008"
         inkscape:export-ydpi="72.000008"><tspan
           sodipodi:role="line"
           id="tspan37871"
           x="-464.2124"
           y="237.28416">The songs</tspan></text><text
         xml:space="preserve"
         style="font-style:normal;font-variant:normal;font-weight:normal;font-stretch:normal;font-size:32px;line-height:1.25;font-family:FreeSans;-inkscape-font-specification:FreeSans"
         x="219.59294"
         y="-140.09735"
         id="text48859"
         transform="scale(1,-1)"
         inkscape:export-filename="/home/andrew/dev/godot/git/andrew-wilkes/vinyl/src/assets/record33.png"
         inkscape:export-xdpi="72.000008"
         inkscape:export-ydpi="72.000008"><tspan
           sodipodi:role="line"
           id="tspan48857"
           x="219.59294"
           y="-140.09735">The songs</tspan></text></g><image
       width="1365.3333"
       height="1365.3333"
       preserveAspectRatio="none"
       xlink:href="models/disc-uv.png"
       id="image48925"
       x="-2403.366"
       y="-845.9613"
       inkscape:export-filename="/home/andrew/dev/godot/git/andrew-wilkes/vinyl/src/assets/record45.png"
       inkscape:export-xdpi="72.000008"
       inkscape:export-ydpi="72.000008"
       style="display:inline" /><rect
       style="display:inline;fill:#202022;fill-opacity:1;stroke-width:32;stroke-linecap:round;stroke-opacity:0.996404"
       id="rect48931"
       width="641.63177"
       height="685.64734"
       x="-1786.0132"
       y="-845.76953"
       inkscape:export-filename="/home/andrew/dev/godot/git/andrew-wilkes/vinyl/src/assets/record45.png"
       inkscape:export-xdpi="72.000008"
       inkscape:export-ydpi="72.000008" /><text
       xml:space="preserve"
       style="font-style:normal;font-variant:normal;font-weight:bold;font-stretch:normal;font-size:48px;line-height:1.25;font-family:FreeSans;-inkscape-font-specification:'FreeSans Bold';fill:#d45500"
       x="-2141.3293"
       y="144.96693"
       id="text48935"
       inkscape:export-filename="/home/andrew/dev/godot/git/andrew-wilkes/vinyl/src/assets/record45.png"
       inkscape:export-xdpi="72.000008"
       inkscape:export-ydpi="72.000008"><tspan
         id="tspan48933"
         x="-2141.3293"
         y="144.96693"
         sodipodi:role="line">Side A</tspan></text><text
       xml:space="preserve"
       style="font-style:normal;font-variant:normal;font-weight:bold;font-stretch:normal;font-size:48px;line-height:1.25;font-family:FreeSans;-inkscape-font-specification:'FreeSans Bold';fill:#d45500"
       x="-1457.392"
       y="-215.14247"
       id="text48939"
       inkscape:export-filename="/home/andrew/dev/godot/git/andrew-wilkes/vinyl/src/assets/record45.png"
       inkscape:export-xdpi="72.000008"
       inkscape:export-ydpi="72.000008"
       transform="scale(1,-1)"><tspan
         id="tspan48937"
         x="-1457.392"
         y="-215.14247"
         sodipodi:role="line">Side B</tspan></text><text
       xml:space="preserve"
       style="font-style:normal;font-variant:normal;font-weight:normal;font-stretch:normal;font-size:32px;line-height:1.25;font-family:FreeSans;-inkscape-font-specification:FreeSans"
       x="-2142.2451"
       y="231.32288"
       id="text48943"
       inkscape:export-filename="/home/andrew/dev/godot/git/andrew-wilkes/vinyl/src/assets/record45.png"
       inkscape:export-xdpi="72.000008"
       inkscape:export-ydpi="72.000008"><tspan
         sodipodi:role="line"
         id="tspan48941"
         x="-2142.2451"
         y="231.32288">The songs</tspan></text><text
       xml:space="preserve"
       style="font-style:normal;font-variant:normal;font-weight:normal;font-stretch:normal;font-size:32px;line-height:1.25;font-family:FreeSans;-inkscape-font-specification:FreeSans"
       x="-1458.4397"
       y="-134.13606"
       id="text48947"
       transform="scale(1,-1)"
       inkscape:export-filename="/home/andrew/dev/godot/git/andrew-wilkes/vinyl/src/assets/record45.png"
       inkscape:export-xdpi="72.000008"
       inkscape:export-ydpi="72.000008"><tspan
         sodipodi:role="line"
         id="tspan48945"
         x="-1458.4397"
         y="-134.13606">The songs</tspan></text><text
       xml:space="preserve"
       style="font-size:13.3333px;line-height:1.25;font-family:'Noto Sans Mono';-inkscape-font-specification:'Noto Sans Mono'"
       x="1874.002"
       y="-553.45734"
       id="text263"><tspan
         sodipodi:role="line"
         id="tspan261"
         x="1874.002"
         y="-553.45734">Tracks</tspan></text><text
       xml:space="preserve"
       style="font-size:13.3333px;line-height:1.25;font-family:'Noto Sans Mono';-inkscape-font-specification:'Noto Sans Mono'"
       x="1940.7866"
       y="-554.13336"
       id="text370"><tspan
         sodipodi:role="line"
         id="tspan368"
         x="1940.7866"
         y="-554.13336">Artwork</tspan></text><text
       xml:space="preserve"
       style="font-size:13.3333px;line-height:1.25;font-family:'Noto Sans Mono';-inkscape-font-specification:'Noto Sans Mono'"
       x="2007.3867"
       y="-554.8667"
       id="text5922"><tspan
         sodipodi:role="line"
         id="tspan5920"
         x="2007.3867"
         y="-554.8667">Production</tspan></text><text
       xml:space="preserve"
       style="font-size:13.3333px;line-height:1.25;font-family:'Noto Sans Mono';-inkscape-font-specification:'Noto Sans Mono';display:inline"
       x="2095.1201"
       y="-555.13336"
       id="text5922-3"><tspan
         sodipodi:role="line"
         id="tspan5920-6"
         x="2095.1201"
         y="-555.13336">Collection</tspan></text><text
       xml:space="preserve"
       style="font-size:13.3333px;line-height:1.25;font-family:'Noto Sans Mono';-inkscape-font-specification:'Noto Sans Mono';display:inline"
       x="2200.6135"
       y="-554.8667"
       id="text5922-3-7"><tspan
         sodipodi:role="line"
         id="tspan5920-6-5"
         x="2200.6135"
         y="-554.8667">Play</tspan></text><text
       xml:space="preserve"
       style="font-size:13.3333px;line-height:1.25;font-family:'Noto Sans Mono';-inkscape-font-specification:'Noto Sans Mono';display:inline"
       x="2280.6135"
       y="-555.26666"
       id="text5922-3-7-5"><tspan
         sodipodi:role="line"
         id="tspan5920-6-5-6"
         x="2280.6135"
         y="-555.26666">Gear</tspan></text><rect
       style="fill:#ffffff;fill-opacity:1;stroke:none;stroke-width:2;stroke-linecap:round;stroke-dasharray:none;stroke-opacity:0.996404"
       id="rect6203"
       width="3"
       height="48"
       x="2104"
       y="-632"
       ry="0" /><rect
       style="fill:#ffffff;fill-opacity:1;stroke:none;stroke-width:2;stroke-linecap:round;stroke-dasharray:none;stroke-opacity:0.996404"
       id="rect6205"
       width="3"
       height="48"
       x="2053.8105"
       y="-806.46094"
       ry="0"
       transform="rotate(4.7927568)" /><rect
       style="fill:#ffffff;fill-opacity:1;stroke:none;stroke-width:2;stroke-linecap:round;stroke-dasharray:none;stroke-opacity:0.996404"
       id="rect6207"
       width="3"
       height="48"
       x="2120"
       y="-632"
       ry="0" /><rect
       style="fill:#ffffff;fill-opacity:1;stroke:none;stroke-width:2;stroke-linecap:round;stroke-dasharray:none;stroke-opacity:0.996404"
       id="rect6209"
       width="3"
       height="48"
       x="2187.1323"
       y="-362.11673"
       ry="0"
       transform="rotate(-7.1526687)" /><rect
       style="fill:#ffffff;fill-opacity:1;stroke:none;stroke-width:2;stroke-linecap:round;stroke-dasharray:none;stroke-opacity:0.996404"
       id="rect6211"
       width="3"
       height="48"
       x="2108.7725"
       y="-720.64941"
       ry="0"
       transform="rotate(2.3911362)" /><rect
       style="fill:#ffffff;fill-opacity:1;stroke:none;stroke-width:2;stroke-linecap:round;stroke-dasharray:none;stroke-opacity:0.996404"
       id="rect6213"
       width="3"
       height="48"
       x="2167.4983"
       y="-541.95801"
       ry="0"
       transform="rotate(-2.3911362)" /><rect
       style="fill:#ffffff;fill-opacity:1;stroke:none;stroke-width:2;stroke-linecap:round;stroke-dasharray:none;stroke-opacity:0.996404"
       id="rect6215"
       width="3"
       height="48"
       x="2149"
       y="-632"
       ry="0" /><text
       xml:space="preserve"
       style="font-style:normal;font-variant:normal;font-weight:bold;font-stretch:normal;font-size:16px;line-height:1.25;font-family:'Noto Sans Mono';-inkscape-font-specification:'Noto Sans Mono Bold';display:inline;fill:#333333"
       x="1871.7201"
       y="-484.272"
       id="text743"><tspan
         sodipodi:role="line"
         id="tspan741"
         x="1871.7201"
         y="-484.272">FRONT</tspan><tspan
         sodipodi:role="line"
         x="1871.7201"
         y="-464.272"
         id="tspan803">COVER</tspan></text><text
       xml:space="preserve"
       style="font-style:normal;font-variant:normal;font-weight:bold;font-stretch:normal;font-size:16px;line-height:1.25;font-family:'Noto Sans Mono';-inkscape-font-specification:'Noto Sans Mono Bold';display:inline;fill:#333333;text-anchor:middle;text-align:center"
       x="1975.2001"
       y="-484.272"
       id="text968"><tspan
         sodipodi:role="line"
         id="tspan964"
         x="1951.7201"
         y="-484.272">REAR</tspan><tspan
         sodipodi:role="line"
         x="1951.7201"
         y="-464.272"
         id="tspan966">COVER</tspan></text><text
       xml:space="preserve"
       style="font-style:normal;font-variant:normal;font-weight:bold;font-stretch:normal;font-size:16px;line-height:1.45;font-family:'Noto Sans Mono';-inkscape-font-specification:'Noto Sans Mono Bold';text-align:center;text-anchor:middle;display:inline;fill:#333333"
       x="2056"
       y="-485.944"
       id="text978"><tspan
         sodipodi:role="line"
         x="2056"
         y="-485.944"
         id="tspan984">A</tspan><tspan
         sodipodi:role="line"
         x="2056"
         y="-462.74399"
         id="tspan1042">SIDE</tspan></text><text
       xml:space="preserve"
       style="font-style:normal;font-variant:normal;font-weight:bold;font-stretch:normal;font-size:16px;line-height:1.45;font-family:'Noto Sans Mono';-inkscape-font-specification:'Noto Sans Mono Bold';text-align:center;text-anchor:middle;display:inline;fill:#333333"
       x="2136"
       y="-485.96799"
       id="text1106"><tspan
         sodipodi:role="line"
         x="2136"
         y="-485.96799"
         id="tspan1102">B</tspan><tspan
         sodipodi:role="line"
         x="2136"
         y="-462.76797"
         id="tspan1104">SIDE</tspan></text></g></svg>
