# Blender v3.1.2 OBJ File: 'turntable.blend'
# www.blender.org
mtllib arm.mtl
o Arm_Cylinder.002
v -1.803957 0.505137 -0.833539
v -1.803957 0.505137 1.572078
v -1.797096 0.504800 -0.833539
v -1.797096 0.504799 1.572078
v -1.790300 0.503792 -0.833539
v -1.790300 0.503792 1.572078
v -1.783637 0.502123 -0.833539
v -1.783637 0.502122 1.572078
v -1.777169 0.499808 -0.833539
v -1.777169 0.499808 1.572078
v -1.770959 0.496871 -0.833539
v -1.770959 0.496871 1.572078
v -1.765067 0.493340 -0.833539
v -1.765067 0.493339 1.572078
v -1.759549 0.489247 -0.833539
v -1.759549 0.489247 1.572078
v -1.754459 0.484634 -0.833539
v -1.754459 0.484634 1.572078
v -1.749846 0.479544 -0.833539
v -1.749846 0.479544 1.572078
v -1.745754 0.474027 -0.833539
v -1.745754 0.474027 1.572078
v -1.742222 0.468134 -0.833539
v -1.742222 0.468134 1.572078
v -1.739285 0.461925 -0.833539
v -1.739285 0.461924 1.572078
v -1.736971 0.455457 -0.833539
v -1.736971 0.455456 1.572078
v -1.735302 0.448793 -0.833539
v -1.735302 0.448793 1.572078
v -1.734294 0.441998 -0.833539
v -1.734294 0.441998 1.572078
v -1.733957 0.435137 -0.833539
v -1.733957 0.435137 1.572078
v -1.734294 0.428275 -0.833539
v -1.734294 0.428275 1.572078
v -1.735302 0.421480 -0.833539
v -1.735302 0.421480 1.572078
v -1.736971 0.414817 -0.833539
v -1.736971 0.414817 1.572078
v -1.739285 0.408349 -0.833539
v -1.739285 0.408349 1.572078
v -1.742222 0.402139 -0.833539
v -1.742222 0.402139 1.572078
v -1.745754 0.396247 -0.833539
v -1.745754 0.396247 1.572078
v -1.749846 0.390729 -0.833539
v -1.749846 0.390729 1.572078
v -1.754459 0.385639 -0.833539
v -1.754459 0.385639 1.572078
v -1.759549 0.381026 -0.833539
v -1.759549 0.381026 1.572078
v -1.765067 0.376934 -0.833539
v -1.765067 0.376934 1.572078
v -1.770959 0.373402 -0.833539
v -1.770959 0.373402 1.572078
v -1.777169 0.370465 -0.833539
v -1.777169 0.370465 1.572078
v -1.783637 0.368151 -0.833539
v -1.783637 0.368151 1.572078
v -1.790300 0.366482 -0.833539
v -1.790300 0.366482 1.572078
v -1.797096 0.365474 -0.833539
v -1.797096 0.365474 1.572078
v -1.803957 0.365137 -0.833539
v -1.803957 0.365137 1.572078
v -1.810818 0.365474 -0.833539
v -1.810818 0.365474 1.572078
v -1.817613 0.366482 -0.833539
v -1.817613 0.366482 1.572078
v -1.824277 0.368151 -0.833539
v -1.824277 0.368151 1.572078
v -1.830745 0.370465 -0.833539
v -1.830745 0.370465 1.572078
v -1.836955 0.373402 -0.833539
v -1.836955 0.373402 1.572078
v -1.842847 0.376934 -0.833539
v -1.842847 0.376934 1.572078
v -1.848364 0.381026 -0.833539
v -1.848364 0.381026 1.572078
v -1.853454 0.385639 -0.833539
v -1.853454 0.385639 1.572078
v -1.858068 0.390729 -0.833539
v -1.858068 0.390729 1.572078
v -1.862160 0.396247 -0.833539
v -1.862160 0.396247 1.572078
v -1.865691 0.402139 -0.833539
v -1.865691 0.402139 1.572078
v -1.868628 0.408349 -0.833539
v -1.868628 0.408349 1.572078
v -1.870943 0.414817 -0.833539
v -1.870943 0.414817 1.572078
v -1.872612 0.421480 -0.833539
v -1.872612 0.421480 1.572078
v -1.873620 0.428275 -0.833539
v -1.873620 0.428275 1.572078
v -1.873957 0.435137 -0.833539
v -1.873957 0.435137 1.572078
v -1.873620 0.441998 -0.833539
v -1.873620 0.441998 1.572078
v -1.872612 0.448793 -0.833539
v -1.872612 0.448793 1.572078
v -1.870943 0.455457 -0.833539
v -1.870943 0.455456 1.572078
v -1.868628 0.461925 -0.833539
v -1.868628 0.461924 1.572078
v -1.865691 0.468134 -0.833539
v -1.865691 0.468134 1.572078
v -1.862160 0.474027 -0.833539
v -1.862160 0.474026 1.572078
v -1.858068 0.479544 -0.833539
v -1.858068 0.479544 1.572078
v -1.853454 0.484634 -0.833539
v -1.853454 0.484634 1.572078
v -1.848364 0.489247 -0.833539
v -1.848364 0.489247 1.572078
v -1.842847 0.493340 -0.833539
v -1.842847 0.493339 1.572078
v -1.836955 0.496871 -0.833539
v -1.836955 0.496871 1.572078
v -1.830745 0.499808 -0.833539
v -1.830745 0.499808 1.572078
v -1.824277 0.502123 -0.833539
v -1.824277 0.502122 1.572078
v -1.817613 0.503792 -0.833539
v -1.817613 0.503792 1.572078
v -1.810818 0.504800 -0.833539
v -1.810818 0.504799 1.572078
vt 1.000000 0.500000
vt 1.000000 1.000000
vt 0.984375 1.000000
vt 0.984375 0.500000
vt 0.968750 1.000000
vt 0.968750 0.500000
vt 0.953125 1.000000
vt 0.953125 0.500000
vt 0.937500 1.000000
vt 0.937500 0.500000
vt 0.921875 1.000000
vt 0.921875 0.500000
vt 0.906250 1.000000
vt 0.906250 0.500000
vt 0.890625 1.000000
vt 0.890625 0.500000
vt 0.875000 1.000000
vt 0.875000 0.500000
vt 0.859375 1.000000
vt 0.859375 0.500000
vt 0.843750 1.000000
vt 0.843750 0.500000
vt 0.828125 1.000000
vt 0.828125 0.500000
vt 0.812500 1.000000
vt 0.812500 0.500000
vt 0.796875 1.000000
vt 0.796875 0.500000
vt 0.781250 1.000000
vt 0.781250 0.500000
vt 0.765625 1.000000
vt 0.765625 0.500000
vt 0.750000 1.000000
vt 0.750000 0.500000
vt 0.734375 1.000000
vt 0.734375 0.500000
vt 0.718750 1.000000
vt 0.718750 0.500000
vt 0.703125 1.000000
vt 0.703125 0.500000
vt 0.687500 1.000000
vt 0.687500 0.500000
vt 0.671875 1.000000
vt 0.671875 0.500000
vt 0.656250 1.000000
vt 0.656250 0.500000
vt 0.640625 1.000000
vt 0.640625 0.500000
vt 0.625000 1.000000
vt 0.625000 0.500000
vt 0.609375 1.000000
vt 0.609375 0.500000
vt 0.593750 1.000000
vt 0.593750 0.500000
vt 0.578125 1.000000
vt 0.578125 0.500000
vt 0.562500 1.000000
vt 0.562500 0.500000
vt 0.546875 1.000000
vt 0.546875 0.500000
vt 0.531250 1.000000
vt 0.531250 0.500000
vt 0.515625 1.000000
vt 0.515625 0.500000
vt 0.500000 1.000000
vt 0.500000 0.500000
vt 0.484375 1.000000
vt 0.484375 0.500000
vt 0.468750 1.000000
vt 0.468750 0.500000
vt 0.453125 1.000000
vt 0.453125 0.500000
vt 0.437500 1.000000
vt 0.437500 0.500000
vt 0.421875 1.000000
vt 0.421875 0.500000
vt 0.406250 1.000000
vt 0.406250 0.500000
vt 0.390625 1.000000
vt 0.390625 0.500000
vt 0.375000 1.000000
vt 0.375000 0.500000
vt 0.359375 1.000000
vt 0.359375 0.500000
vt 0.343750 1.000000
vt 0.343750 0.500000
vt 0.328125 1.000000
vt 0.328125 0.500000
vt 0.312500 1.000000
vt 0.312500 0.500000
vt 0.296875 1.000000
vt 0.296875 0.500000
vt 0.281250 1.000000
vt 0.281250 0.500000
vt 0.265625 1.000000
vt 0.265625 0.500000
vt 0.250000 1.000000
vt 0.250000 0.500000
vt 0.234375 1.000000
vt 0.234375 0.500000
vt 0.218750 1.000000
vt 0.218750 0.500000
vt 0.203125 1.000000
vt 0.203125 0.500000
vt 0.187500 1.000000
vt 0.187500 0.500000
vt 0.171875 1.000000
vt 0.171875 0.500000
vt 0.156250 1.000000
vt 0.156250 0.500000
vt 0.140625 1.000000
vt 0.140625 0.500000
vt 0.125000 1.000000
vt 0.125000 0.500000
vt 0.109375 1.000000
vt 0.109375 0.500000
vt 0.093750 1.000000
vt 0.093750 0.500000
vt 0.078125 1.000000
vt 0.078125 0.500000
vt 0.062500 1.000000
vt 0.062500 0.500000
vt 0.046875 1.000000
vt 0.046875 0.500000
vt 0.031250 1.000000
vt 0.031250 0.500000
vt 0.273524 0.488844
vt 0.250000 0.490000
vt 0.226476 0.488844
vt 0.203178 0.485388
vt 0.180332 0.479666
vt 0.158156 0.471731
vt 0.136865 0.461661
vt 0.116663 0.449553
vt 0.097746 0.435523
vt 0.080294 0.419706
vt 0.064477 0.402254
vt 0.050447 0.383337
vt 0.038339 0.363135
vt 0.028269 0.341844
vt 0.020334 0.319668
vt 0.014612 0.296822
vt 0.011156 0.273524
vt 0.010000 0.250000
vt 0.011156 0.226476
vt 0.014612 0.203178
vt 0.020334 0.180332
vt 0.028269 0.158156
vt 0.038339 0.136865
vt 0.050447 0.116663
vt 0.064477 0.097746
vt 0.080294 0.080294
vt 0.097746 0.064477
vt 0.116663 0.050447
vt 0.136865 0.038339
vt 0.158156 0.028269
vt 0.180332 0.020334
vt 0.203178 0.014612
vt 0.226476 0.011156
vt 0.250000 0.010000
vt 0.273524 0.011156
vt 0.296822 0.014612
vt 0.319668 0.020334
vt 0.341844 0.028269
vt 0.363135 0.038339
vt 0.383337 0.050447
vt 0.402254 0.064477
vt 0.419706 0.080294
vt 0.435523 0.097746
vt 0.449553 0.116663
vt 0.461661 0.136865
vt 0.471731 0.158156
vt 0.479666 0.180332
vt 0.485388 0.203178
vt 0.488844 0.226476
vt 0.490000 0.250000
vt 0.488844 0.273524
vt 0.485388 0.296822
vt 0.479666 0.319668
vt 0.471731 0.341844
vt 0.461661 0.363135
vt 0.449553 0.383337
vt 0.435522 0.402254
vt 0.419706 0.419706
vt 0.402254 0.435523
vt 0.383337 0.449553
vt 0.363135 0.461661
vt 0.341844 0.471731
vt 0.319668 0.479666
vt 0.296822 0.485388
vt 0.015625 1.000000
vt 0.015625 0.500000
vt 0.000000 1.000000
vt 0.000000 0.500000
vt 0.750000 0.490000
vt 0.773524 0.488844
vt 0.796822 0.485388
vt 0.819668 0.479666
vt 0.841844 0.471731
vt 0.863135 0.461661
vt 0.883337 0.449553
vt 0.902254 0.435523
vt 0.919706 0.419706
vt 0.935522 0.402254
vt 0.949553 0.383337
vt 0.961661 0.363135
vt 0.971731 0.341844
vt 0.979666 0.319668
vt 0.985388 0.296822
vt 0.988844 0.273524
vt 0.990000 0.250000
vt 0.988844 0.226476
vt 0.985388 0.203178
vt 0.979666 0.180332
vt 0.971731 0.158156
vt 0.961661 0.136865
vt 0.949553 0.116663
vt 0.935523 0.097746
vt 0.919706 0.080294
vt 0.902254 0.064477
vt 0.883337 0.050447
vt 0.863135 0.038339
vt 0.841844 0.028269
vt 0.819668 0.020334
vt 0.796822 0.014612
vt 0.773524 0.011156
vt 0.750000 0.010000
vt 0.726476 0.011156
vt 0.703178 0.014612
vt 0.680332 0.020334
vt 0.658156 0.028269
vt 0.636865 0.038339
vt 0.616663 0.050447
vt 0.597746 0.064477
vt 0.580294 0.080294
vt 0.564478 0.097746
vt 0.550447 0.116663
vt 0.538339 0.136865
vt 0.528269 0.158156
vt 0.520334 0.180332
vt 0.514612 0.203178
vt 0.511156 0.226476
vt 0.510000 0.250000
vt 0.511156 0.273524
vt 0.514612 0.296822
vt 0.520334 0.319668
vt 0.528269 0.341844
vt 0.538339 0.363135
vt 0.550447 0.383337
vt 0.564478 0.402254
vt 0.580294 0.419706
vt 0.597746 0.435523
vt 0.616663 0.449553
vt 0.636865 0.461661
vt 0.658156 0.471731
vt 0.680332 0.479666
vt 0.703178 0.485388
vt 0.726476 0.488844
vn -0.0000 0.7178 -0.6962
vn -0.0000 0.7178 0.6962
vn 0.0704 0.7144 0.6962
vn 0.0704 0.7144 -0.6962
vn 0.1400 0.7040 0.6962
vn 0.1400 0.7040 -0.6962
vn 0.2084 0.6869 0.6962
vn 0.2084 0.6869 -0.6962
vn 0.2747 0.6632 0.6962
vn 0.2747 0.6632 -0.6962
vn 0.3384 0.6331 0.6962
vn 0.3384 0.6331 -0.6962
vn 0.3988 0.5968 0.6962
vn 0.3988 0.5968 -0.6962
vn 0.4554 0.5549 0.6962
vn 0.4554 0.5549 -0.6962
vn 0.5076 0.5076 0.6962
vn 0.5076 0.5076 -0.6962
vn 0.5549 0.4554 0.6962
vn 0.5549 0.4554 -0.6962
vn 0.5968 0.3988 0.6962
vn 0.5968 0.3988 -0.6962
vn 0.6331 0.3384 0.6962
vn 0.6331 0.3384 -0.6962
vn 0.6632 0.2747 0.6962
vn 0.6632 0.2747 -0.6962
vn 0.6869 0.2084 0.6962
vn 0.6869 0.2084 -0.6962
vn 0.7040 0.1400 0.6962
vn 0.7040 0.1400 -0.6962
vn 0.7144 0.0704 0.6962
vn 0.7144 0.0704 -0.6962
vn 0.7178 -0.0000 0.6962
vn 0.7178 -0.0000 -0.6962
vn 0.7144 -0.0704 0.6962
vn 0.7144 -0.0704 -0.6962
vn 0.7040 -0.1400 0.6962
vn 0.7040 -0.1400 -0.6962
vn 0.6869 -0.2084 0.6962
vn 0.6869 -0.2084 -0.6962
vn 0.6632 -0.2747 0.6962
vn 0.6632 -0.2747 -0.6962
vn 0.6331 -0.3384 0.6962
vn 0.6331 -0.3384 -0.6962
vn 0.5968 -0.3988 0.6962
vn 0.5968 -0.3988 -0.6962
vn 0.5549 -0.4554 0.6962
vn 0.5549 -0.4554 -0.6962
vn 0.5076 -0.5076 0.6962
vn 0.5076 -0.5076 -0.6962
vn 0.4554 -0.5549 0.6962
vn 0.4554 -0.5549 -0.6962
vn 0.3988 -0.5968 0.6962
vn 0.3988 -0.5968 -0.6962
vn 0.3384 -0.6331 0.6962
vn 0.3384 -0.6331 -0.6962
vn 0.2747 -0.6632 0.6962
vn 0.2747 -0.6632 -0.6962
vn 0.2084 -0.6869 0.6962
vn 0.2084 -0.6869 -0.6962
vn 0.1400 -0.7040 0.6962
vn 0.1400 -0.7040 -0.6962
vn 0.0704 -0.7144 0.6962
vn 0.0704 -0.7144 -0.6962
vn -0.0000 -0.7178 0.6962
vn -0.0000 -0.7178 -0.6962
vn -0.0704 -0.7144 0.6962
vn -0.0704 -0.7144 -0.6962
vn -0.1400 -0.7040 0.6962
vn -0.1400 -0.7040 -0.6962
vn -0.2084 -0.6869 0.6962
vn -0.2084 -0.6869 -0.6962
vn -0.2747 -0.6632 0.6962
vn -0.2747 -0.6632 -0.6962
vn -0.3384 -0.6331 0.6962
vn -0.3384 -0.6331 -0.6962
vn -0.3988 -0.5968 0.6962
vn -0.3988 -0.5968 -0.6962
vn -0.4554 -0.5549 0.6962
vn -0.4554 -0.5549 -0.6962
vn -0.5076 -0.5076 0.6962
vn -0.5076 -0.5076 -0.6962
vn -0.5549 -0.4554 0.6962
vn -0.5549 -0.4554 -0.6962
vn -0.5969 -0.3988 0.6962
vn -0.5969 -0.3988 -0.6962
vn -0.6331 -0.3384 0.6962
vn -0.6331 -0.3384 -0.6962
vn -0.6632 -0.2747 0.6962
vn -0.6632 -0.2747 -0.6962
vn -0.6869 -0.2084 0.6962
vn -0.6869 -0.2084 -0.6962
vn -0.7040 -0.1400 0.6962
vn -0.7040 -0.1400 -0.6962
vn -0.7144 -0.0704 0.6962
vn -0.7144 -0.0704 -0.6962
vn -0.7178 -0.0000 0.6962
vn -0.7178 -0.0000 -0.6962
vn -0.7144 0.0704 0.6962
vn -0.7144 0.0704 -0.6962
vn -0.7040 0.1400 0.6962
vn -0.7040 0.1400 -0.6962
vn -0.6869 0.2084 0.6962
vn -0.6869 0.2084 -0.6962
vn -0.6632 0.2747 0.6962
vn -0.6632 0.2747 -0.6962
vn -0.6331 0.3384 0.6962
vn -0.6331 0.3384 -0.6962
vn -0.5968 0.3988 0.6962
vn -0.5968 0.3988 -0.6962
vn -0.5549 0.4554 0.6962
vn -0.5549 0.4554 -0.6962
vn -0.5076 0.5076 0.6962
vn -0.5076 0.5076 -0.6962
vn -0.4554 0.5549 0.6962
vn -0.4554 0.5549 -0.6962
vn -0.3988 0.5968 0.6962
vn -0.3988 0.5968 -0.6962
vn -0.3384 0.6331 0.6962
vn -0.3384 0.6331 -0.6962
vn -0.2747 0.6632 0.6962
vn -0.2747 0.6632 -0.6962
vn -0.2084 0.6869 0.6962
vn -0.2084 0.6869 -0.6962
vn -0.1400 0.7040 0.6962
vn -0.1400 0.7040 -0.6962
vn -0.0704 0.7144 0.6962
vn -0.0704 0.7144 -0.6962
usemtl Black
s 1
f 1/1/1 2/2/2 4/3/3 3/4/4
f 3/4/4 4/3/3 6/5/5 5/6/6
f 5/6/6 6/5/5 8/7/7 7/8/8
f 7/8/8 8/7/7 10/9/9 9/10/10
f 9/10/10 10/9/9 12/11/11 11/12/12
f 11/12/12 12/11/11 14/13/13 13/14/14
f 13/14/14 14/13/13 16/15/15 15/16/16
f 15/16/16 16/15/15 18/17/17 17/18/18
f 17/18/18 18/17/17 20/19/19 19/20/20
f 19/20/20 20/19/19 22/21/21 21/22/22
f 21/22/22 22/21/21 24/23/23 23/24/24
f 23/24/24 24/23/23 26/25/25 25/26/26
f 25/26/26 26/25/25 28/27/27 27/28/28
f 27/28/28 28/27/27 30/29/29 29/30/30
f 29/30/30 30/29/29 32/31/31 31/32/32
f 31/32/32 32/31/31 34/33/33 33/34/34
f 33/34/34 34/33/33 36/35/35 35/36/36
f 35/36/36 36/35/35 38/37/37 37/38/38
f 37/38/38 38/37/37 40/39/39 39/40/40
f 39/40/40 40/39/39 42/41/41 41/42/42
f 41/42/42 42/41/41 44/43/43 43/44/44
f 43/44/44 44/43/43 46/45/45 45/46/46
f 45/46/46 46/45/45 48/47/47 47/48/48
f 47/48/48 48/47/47 50/49/49 49/50/50
f 49/50/50 50/49/49 52/51/51 51/52/52
f 51/52/52 52/51/51 54/53/53 53/54/54
f 53/54/54 54/53/53 56/55/55 55/56/56
f 55/56/56 56/55/55 58/57/57 57/58/58
f 57/58/58 58/57/57 60/59/59 59/60/60
f 59/60/60 60/59/59 62/61/61 61/62/62
f 61/62/62 62/61/61 64/63/63 63/64/64
f 63/64/64 64/63/63 66/65/65 65/66/66
f 65/66/66 66/65/65 68/67/67 67/68/68
f 67/68/68 68/67/67 70/69/69 69/70/70
f 69/70/70 70/69/69 72/71/71 71/72/72
f 71/72/72 72/71/71 74/73/73 73/74/74
f 73/74/74 74/73/73 76/75/75 75/76/76
f 75/76/76 76/75/75 78/77/77 77/78/78
f 77/78/78 78/77/77 80/79/79 79/80/80
f 79/80/80 80/79/79 82/81/81 81/82/82
f 81/82/82 82/81/81 84/83/83 83/84/84
f 83/84/84 84/83/83 86/85/85 85/86/86
f 85/86/86 86/85/85 88/87/87 87/88/88
f 87/88/88 88/87/87 90/89/89 89/90/90
f 89/90/90 90/89/89 92/91/91 91/92/92
f 91/92/92 92/91/91 94/93/93 93/94/94
f 93/94/94 94/93/93 96/95/95 95/96/96
f 95/96/96 96/95/95 98/97/97 97/98/98
f 97/98/98 98/97/97 100/99/99 99/100/100
f 99/100/100 100/99/99 102/101/101 101/102/102
f 101/102/102 102/101/101 104/103/103 103/104/104
f 103/104/104 104/103/103 106/105/105 105/106/106
f 105/106/106 106/105/105 108/107/107 107/108/108
f 107/108/108 108/107/107 110/109/109 109/110/110
f 109/110/110 110/109/109 112/111/111 111/112/112
f 111/112/112 112/111/111 114/113/113 113/114/114
f 113/114/114 114/113/113 116/115/115 115/116/116
f 115/116/116 116/115/115 118/117/117 117/118/118
f 117/118/118 118/117/117 120/119/119 119/120/120
f 119/120/120 120/119/119 122/121/121 121/122/122
f 121/122/122 122/121/121 124/123/123 123/124/124
f 123/124/124 124/123/123 126/125/125 125/126/126
f 4/127/3 2/128/2 128/129/127 126/130/125 124/131/123 122/132/121 120/133/119 118/134/117 116/135/115 114/136/113 112/137/111 110/138/109 108/139/107 106/140/105 104/141/103 102/142/101 100/143/99 98/144/97 96/145/95 94/146/93 92/147/91 90/148/89 88/149/87 86/150/85 84/151/83 82/152/81 80/153/79 78/154/77 76/155/75 74/156/73 72/157/71 70/158/69 68/159/67 66/160/65 64/161/63 62/162/61 60/163/59 58/164/57 56/165/55 54/166/53 52/167/51 50/168/49 48/169/47 46/170/45 44/171/43 42/172/41 40/173/39 38/174/37 36/175/35 34/176/33 32/177/31 30/178/29 28/179/27 26/180/25 24/181/23 22/182/21 20/183/19 18/184/17 16/185/15 14/186/13 12/187/11 10/188/9 8/189/7 6/190/5
f 125/126/126 126/125/125 128/191/127 127/192/128
f 127/192/128 128/191/127 2/193/2 1/194/1
f 1/195/1 3/196/4 5/197/6 7/198/8 9/199/10 11/200/12 13/201/14 15/202/16 17/203/18 19/204/20 21/205/22 23/206/24 25/207/26 27/208/28 29/209/30 31/210/32 33/211/34 35/212/36 37/213/38 39/214/40 41/215/42 43/216/44 45/217/46 47/218/48 49/219/50 51/220/52 53/221/54 55/222/56 57/223/58 59/224/60 61/225/62 63/226/64 65/227/66 67/228/68 69/229/70 71/230/72 73/231/74 75/232/76 77/233/78 79/234/80 81/235/82 83/236/84 85/237/86 87/238/88 89/239/90 91/240/92 93/241/94 95/242/96 97/243/98 99/244/100 101/245/102 103/246/104 105/247/106 107/248/108 109/249/110 111/250/112 113/251/114 115/252/116 117/253/118 119/254/120 121/255/122 123/256/124 125/257/126 127/258/128
o Head_Cube.006
v -1.932887 0.476781 -0.639007
v -1.678436 0.476781 -0.639007
v -1.932887 0.400708 -0.639007
v -1.678436 0.400708 -0.639007
v -1.917470 0.476781 -1.166193
v -1.932887 0.476781 -1.134251
v -1.925179 0.476781 -1.161913
v -1.930822 0.476781 -1.150222
v -1.678436 0.476781 -1.134251
v -1.693853 0.476781 -1.166193
v -1.680502 0.476781 -1.150222
v -1.686145 0.476781 -1.161913
v -1.932887 0.400708 -1.134251
v -1.917470 0.400708 -1.166193
v -1.930822 0.400708 -1.150222
v -1.925179 0.400708 -1.161913
v -1.693853 0.400708 -1.166193
v -1.678436 0.400708 -1.134251
v -1.686145 0.400708 -1.161913
v -1.680502 0.400708 -1.150222
vt 0.390147 0.250000
vt 0.609853 0.250000
vt 0.609853 0.500000
vt 0.390147 0.500000
vt 0.625000 0.515147
vt 0.875000 0.515147
vt 0.875000 0.750000
vt 0.625000 0.750000
vt 0.375000 0.750000
vt 0.625000 1.000000
vt 0.375000 1.000000
vt 0.375000 0.000000
vt 0.625000 0.000000
vt 0.625000 0.234853
vt 0.622971 0.242426
vt 0.617426 0.247971
vt 0.382574 0.247971
vt 0.377029 0.242426
vt 0.375000 0.234853
vt 0.375000 0.515147
vt 0.377029 0.507574
vt 0.382574 0.502029
vt 0.617426 0.502029
vt 0.622971 0.507574
vt 0.125000 0.515147
vt 0.125000 0.507574
vt 0.375000 0.507574
vt 0.125000 0.500000
vt 0.375000 0.500000
vt 0.382574 0.500000
vt 0.382574 0.250000
vt 0.625000 0.507574
vt 0.875000 0.507574
vt 0.625000 0.250000
vt 0.625000 0.500000
vt 0.617426 0.500000
vt 0.617426 0.250000
vt 0.125000 0.750000
vn 0.0000 0.0000 -1.0000
vn 1.0000 0.0000 0.0000
vn -0.0000 0.0000 1.0000
vn -0.0000 1.0000 -0.0000
vn 0.0000 -1.0000 -0.0000
vn -0.9917 0.0000 -0.1283
vn -0.9006 0.0000 -0.4347
vn -0.4854 0.0000 -0.8743
vn 0.9917 0.0000 -0.1283
vn 0.9006 0.0000 -0.4347
vn 0.4854 0.0000 -0.8743
vn -1.0000 0.0000 0.0000
usemtl BlackMetal
s off
f 133/259/129 138/260/129 145/261/129 142/262/129
f 146/263/130 137/264/130 130/265/130 132/266/130
f 131/267/131 132/266/131 130/268/131 129/269/131
f 129/270/132 130/271/132 137/272/132 139/273/132 140/274/132 138/260/132 133/259/132 135/275/132 136/276/132 134/277/132
f 141/278/133 143/279/133 144/280/133 142/262/133 145/261/133 147/281/133 148/282/133 146/263/133 132/266/133 131/267/133
f 141/278/134 134/283/134 136/284/134 143/285/134
f 143/285/135 136/284/135 135/286/135 144/287/135
f 144/288/136 135/289/136 133/259/136 142/262/136
f 137/264/137 146/263/137 148/290/137 139/291/137
f 139/292/138 148/293/138 147/294/138 140/295/138
f 140/295/139 147/294/139 145/261/139 138/260/139
f 134/283/140 141/278/140 131/267/140 129/296/140
o Cartridge_Cube.007
v -1.869702 0.401431 -0.877533
v -1.739039 0.401431 -0.877533
v -1.869702 0.401431 -1.128237
v -1.739039 0.401431 -1.128237
v -1.869702 0.274606 -0.877533
v -1.739039 0.274606 -0.877533
v -1.869702 0.274606 -1.128237
v -1.739039 0.274606 -1.128237
vt 0.375000 0.000000
vt 0.625000 0.000000
vt 0.625000 0.250000
vt 0.375000 0.250000
vt 0.625000 0.500000
vt 0.375000 0.500000
vt 0.625000 0.750000
vt 0.375000 0.750000
vt 0.625000 1.000000
vt 0.375000 1.000000
vt 0.125000 0.500000
vt 0.125000 0.750000
vt 0.875000 0.500000
vt 0.875000 0.750000
vn 0.0000 1.0000 0.0000
vn 0.0000 0.0000 -1.0000
vn 0.0000 -1.0000 0.0000
vn 0.0000 0.0000 1.0000
vn -1.0000 0.0000 0.0000
vn 1.0000 0.0000 0.0000
usemtl Cartridge
s off
f 149/297/141 150/298/141 152/299/141 151/300/141
f 151/300/142 152/299/142 156/301/142 155/302/142
f 155/302/143 156/301/143 154/303/143 153/304/143
f 153/304/144 154/303/144 150/305/144 149/306/144
f 151/307/145 155/302/145 153/304/145 149/308/145
f 156/301/146 152/309/146 150/310/146 154/303/146
