# Blender v3.1.2 OBJ File: 'turntable.blend'
# www.blender.org
mtllib handle.mtl
o Handle_Cube.008
v -2.120062 0.443467 -0.925941
v -1.932887 0.443467 -0.925941
v -2.120062 0.443467 -0.879258
v -1.932887 0.443467 -0.879258
v -2.120062 0.436417 -0.925941
v -1.932887 0.436417 -0.925941
v -2.120062 0.436417 -0.879258
v -1.932887 0.436417 -0.879258
vt 0.375000 0.000000
vt 0.375000 0.250000
vt 0.625000 0.250000
vt 0.625000 0.000000
vt 0.375000 0.500000
vt 0.625000 0.500000
vt 0.375000 0.750000
vt 0.625000 0.750000
vt 0.375000 1.000000
vt 0.625000 1.000000
vt 0.125000 0.500000
vt 0.125000 0.750000
vt 0.875000 0.750000
vt 0.875000 0.500000
vn -0.0000 1.0000 0.0000
vn 0.0000 0.0000 1.0000
vn 0.0000 -1.0000 0.0000
vn 0.0000 0.0000 -1.0000
vn -1.0000 0.0000 0.0000
vn 1.0000 0.0000 0.0000
usemtl BlackMetal
s off
f 1/1/1 3/2/1 4/3/1 2/4/1
f 3/2/2 7/5/2 8/6/2 4/3/2
f 7/5/3 5/7/3 6/8/3 8/6/3
f 5/7/4 1/9/4 2/10/4 6/8/4
f 3/11/5 1/12/5 5/7/5 7/5/5
f 8/6/6 6/8/6 2/13/6 4/14/6
