# FreeCAD v0.20 build1 Arch module
# http://www.freecadweb.org
mtllib shelves.mtl
o Body
usemtl color_cc8344
v -372.0 -340.0 1104.0
v -354.0 -340.0 740.0
v -354.0 -340.0 1080.0
v 354.0 -340.0 1080.0
v 372.0 -340.0 1104.0
v -354.0 -340.0 722.0
v 354.0 -340.0 740.0
v -354.0 -340.0 364.0
v -372.0 -340.0 0.0
v -354.0 -340.0 24.0
v 354.0 -340.0 722.0
v 354.0 -340.0 382.0
v -354.0 -340.0 382.0
v 354.0 -340.0 364.0
v 372.0 -340.0 0.0
v 354.0 -340.0 24.0
v -372.0 0.0 0.0
v -372.0 0.0 1104.0
v 372.0 0.0 0.0
v 372.0 0.0 1104.0
v -354.0 -6.0 1080.0
v 354.0 -6.0 1080.0
v -354.0 -6.0 740.0
v 354.0 -6.0 740.0
v -354.0 -6.0 722.0
v 354.0 -6.0 722.0
v 354.0 -6.0 382.0
v -354.0 -6.0 382.0
v -354.0 -6.0 364.0
v 354.0 -6.0 364.0
v 354.0 -6.0 24.0
v -354.0 -6.0 24.0
v 354.0 -6.0 740.0
v 354.0 -6.0 1080.0
v -354.0 -6.0 740.0
v -354.0 -6.0 1080.0
v 354.0 -6.0 382.0
v 354.0 -6.0 722.0
v -354.0 -6.0 382.0
v -354.0 -6.0 722.0
v 354.0 -6.0 24.0
v 354.0 -6.0 364.0
v -354.0 -6.0 24.0
v -354.0 -6.0 364.0
vn 0.0 -1.0 0.0
vn 0.0 -1.0 0.0
vn 0.0 -1.0 0.0
vn 0.0 -1.0 0.0
vn 0.0 -1.0 0.0
vn 0.0 -1.0 -0.0
vn 0.0 -1.0 0.0
vn 0.0 -1.0 0.0
vn 0.0 -1.0 0.0
vn 0.0 -1.0 0.0
vn 0.0 -1.0 0.0
vn 0.0 -1.0 0.0
vn 0.0 -1.0 0.0
vn 0.0 -1.0 -0.0
vn 0.0 -1.0 -0.0
vn 0.0 -1.0 -0.0
vn 0.0 -1.0 0.0
vn 0.0 -1.0 0.0
vn 0.0 -1.0 0.0
vn 0.0 -1.0 0.0
vn -1.0 0.0 0.0
vn -1.0 -0.0 0.0
vn 0.0 0.0 -1.0
vn 0.0 0.0 -1.0
vn 0.0 0.0 1.0
vn 0.0 0.0 1.0
vn 1.0 0.0 0.0
vn 1.0 -0.0 0.0
vn 0.0 0.0 -1.0
vn 0.0 0.0 -1.0
vn 1.0 0.0 0.0
vn 1.0 -0.0 0.0
vn -1.0 0.0 0.0
vn -1.0 0.0 0.0
vn 0.0 0.0 1.0
vn 0.0 0.0 1.0
vn 0.0 0.0 -1.0
vn 0.0 0.0 -1.0
vn -1.0 0.0 0.0
vn -1.0 0.0 0.0
vn 0.0 0.0 1.0
vn 0.0 0.0 1.0
vn 1.0 0.0 0.0
vn 1.0 -0.0 0.0
vn 0.0 0.0 -1.0
vn 0.0 0.0 -1.0
vn -1.0 0.0 0.0
vn -1.0 0.0 0.0
vn 0.0 0.0 1.0
vn 0.0 0.0 1.0
vn 1.0 0.0 0.0
vn 1.0 -0.0 0.0
vn 0.0 1.0 -0.0
vn 0.0 1.0 0.0
vn 0.0 -1.0 0.0
vn 0.0 -1.0 0.0
vn 0.0 -1.0 0.0
vn 0.0 -1.0 0.0
vn 0.0 -1.0 0.0
vn 0.0 -1.0 0.0
f 1//1 2//1 3//1 
f 1//2 4//2 5//2 
f 3//3 4//3 1//3 
f 6//4 7//4 2//4 
f 4//5 7//5 5//5 
f 8//6 9//6 10//6 
f 6//7 11//7 7//7 
f 8//8 12//8 13//8 
f 8//9 14//9 12//9 
f 10//10 15//10 16//10 
f 16//11 15//11 14//11 
f 9//12 15//12 10//12 
f 1//13 9//13 2//13 
f 2//14 9//14 6//14 
f 6//15 9//15 13//15 
f 13//16 9//16 8//16 
f 15//17 5//17 14//17 
f 14//18 5//18 12//18 
f 12//19 5//19 11//19 
f 11//20 5//20 7//20 
f 17//21 9//21 18//21 
f 18//22 9//22 1//22 
f 9//23 19//23 15//23 
f 17//24 19//24 9//24 
f 20//25 1//25 5//25 
f 20//26 18//26 1//26 
f 15//27 19//27 5//27 
f 5//28 19//28 20//28 
f 4//29 3//29 21//29 
f 4//30 21//30 22//30 
f 21//31 2//31 23//31 
f 3//32 2//32 21//32 
f 24//33 4//33 22//33 
f 7//34 4//34 24//34 
f 2//35 7//35 24//35 
f 2//36 24//36 23//36 
f 11//37 6//37 25//37 
f 11//38 25//38 26//38 
f 27//39 11//39 26//39 
f 12//40 11//40 27//40 
f 13//41 12//41 27//41 
f 13//42 27//42 28//42 
f 25//43 13//43 28//43 
f 6//44 13//44 25//44 
f 14//45 8//45 29//45 
f 14//46 29//46 30//46 
f 31//47 14//47 30//47 
f 16//48 14//48 31//48 
f 10//49 16//49 31//49 
f 10//50 31//50 32//50 
f 29//51 10//51 32//51 
f 8//52 10//52 29//52 
f 19//53 17//53 20//53 
f 20//54 17//54 18//54 
f 33//55 34//55 35//55 
f 35//56 34//56 36//56 
f 37//57 38//57 39//57 
f 39//58 38//58 40//58 
f 41//59 42//59 43//59 
f 43//60 42//60 44//60 
