# Blender v3.2.1 OBJ File: 'shelves.blend'
# www.blender.org
mtllib shelves.mtl
o Body.001
v -0.372000 1.104000 0.340000
v -0.354000 0.740000 0.340000
v -0.354000 1.080000 0.340000
v 0.354000 1.080000 0.340000
v 0.372000 1.104000 0.340000
v -0.354000 0.722000 0.340000
v 0.354000 0.740000 0.340000
v -0.354000 0.364000 0.340000
v -0.372000 0.000000 0.340000
v -0.354000 0.024000 0.340000
v 0.354000 0.722000 0.340000
v 0.354000 0.382000 0.340000
v -0.354000 0.382000 0.340000
v 0.354000 0.364000 0.340000
v 0.372000 0.000000 0.340000
v 0.354000 0.024000 0.340000
v -0.372000 0.000000 0.000000
v -0.372000 1.104000 0.000000
v 0.372000 0.000000 0.000000
v 0.372000 1.104000 0.000000
v -0.354000 1.080000 0.006000
v 0.354000 1.080000 0.006000
v -0.354000 0.740000 0.006000
v 0.354000 0.740000 0.006000
v -0.354000 0.722000 0.006000
v 0.354000 0.722000 0.006000
v 0.354000 0.382000 0.006000
v -0.354000 0.382000 0.006000
v -0.354000 0.364000 0.006000
v 0.354000 0.364000 0.006000
v 0.354000 0.024000 0.006000
v -0.354000 0.024000 0.006000
v 0.354000 0.740000 0.006000
v 0.354000 1.080000 0.006000
v -0.354000 0.740000 0.006000
v -0.354000 1.080000 0.006000
v 0.354000 0.382000 0.006000
v 0.354000 0.722000 0.006000
v -0.354000 0.382000 0.006000
v -0.354000 0.722000 0.006000
v 0.354000 0.024000 0.006000
v 0.354000 0.364000 0.006000
v -0.354000 0.024000 0.006000
v -0.354000 0.364000 0.006000
vt 0.000000 0.438095
vt 0.007141 0.293651
vt 0.007141 0.428571
vt 0.000000 0.000000
vt 0.295227 0.000000
vt 0.288086 0.009524
vt 0.007141 0.009524
vt 0.007141 0.144444
vt 0.288086 0.144444
vt 0.288086 0.151587
vt 0.007141 0.151587
vt 0.288086 0.428571
vt 0.288086 0.293651
vt 0.295227 0.438095
vt 0.134918 0.438110
vt 0.134918 0.733337
vt 0.000000 0.733337
vt 0.000000 0.438110
vt 0.007141 0.286508
vt 0.288086 0.286508
vt 0.269836 0.719055
vt 0.269836 0.438110
vt 0.404755 0.438110
vt 0.404755 0.719055
vt 0.807129 0.438110
vt 0.807129 0.719055
vt 0.674591 0.719055
vt 0.674591 0.438110
vt 0.799988 0.854004
vt 0.799988 0.719055
vt 0.932526 0.719055
vt 0.932526 0.854004
vt 0.939667 0.438110
vt 0.939667 0.719055
vt 0.807129 0.719055
vt 0.807129 0.438110
vt 0.992859 0.000000
vt 0.992859 0.280945
vt 0.860321 0.280945
vt 0.860321 0.000000
vt 0.725403 0.000000
vt 0.725403 0.438095
vt 0.590485 0.438095
vt 0.590485 0.000000
vt 0.404785 0.719055
vt 0.404785 0.438110
vt 0.539673 0.438110
vt 0.539673 0.719055
vt 0.800000 0.853943
vt 0.800000 0.988892
vt 0.667460 0.988892
vt 0.667460 0.853943
vt 0.402374 0.719055
vt 0.402374 1.000000
vt 0.269836 1.000000
vt 0.269836 0.719055
vt 0.667450 0.853968
vt 0.667450 0.719048
vt 0.799988 0.719048
vt 0.799988 0.853968
vt 0.132540 0.733334
vt 0.132540 0.868254
vt 0.000000 0.868254
vt 0.000000 0.733334
vt 0.534912 0.719055
vt 0.534912 1.000000
vt 0.402374 1.000000
vt 0.402374 0.719055
vt 0.269836 0.438110
vt 0.269836 0.733337
vt 0.134918 0.733337
vt 0.134918 0.438110
vt 0.590454 0.000000
vt 0.590454 0.438095
vt 0.295227 0.438095
vt 0.295227 0.000000
vt 0.132538 0.868256
vt 0.132538 0.733337
vt 0.265076 0.733337
vt 0.265076 0.868256
vt 0.667450 0.719055
vt 0.667450 1.000000
vt 0.534912 1.000000
vt 0.534912 0.719055
vt 0.539673 0.719055
vt 0.539673 0.438110
vt 0.674622 0.438110
vt 0.674622 0.719055
vt 0.860318 0.000000
vt 0.860318 0.438095
vt 0.725397 0.438095
vt 0.725397 0.000000
vt 0.932540 0.853973
vt 0.932540 0.988892
vt 0.800000 0.988892
vt 0.800000 0.853973
vn 0.0000 0.0000 1.0000
vn 0.0000 -1.0000 0.0000
vn -0.0001 0.0000 1.0000
vn 1.0000 0.0000 0.0000
vn 0.0000 1.0000 0.0000
vn -1.0000 0.0000 0.0000
vn 0.0000 0.0000 -1.0000
usemtl color_cc8344.001
s 1
f 1/1/1 2/2/1 3/3/1
f 9/4/1 15/5/1 16/6/1 10/7/1
f 8/8/1 14/9/1 12/10/1 13/11/1
f 4/12/1 7/13/1 5/14/1
f 8/8/1 9/4/1 10/7/1
f 17/15/2 19/16/2 15/17/2 9/18/2
f 16/6/1 15/5/1 14/9/1
f 1/1/1 9/4/1 2/2/1
f 2/2/1 9/4/1 6/19/3
f 6/19/3 9/4/1 13/11/1
f 13/11/1 9/4/1 8/8/1
f 15/5/1 5/14/1 14/9/1
f 14/9/1 5/14/1 12/10/1
f 12/10/1 5/14/1 11/20/1
f 11/20/1 5/14/1 7/13/1
f 42/21/1 44/22/1 43/23/1 41/24/1
f 21/25/2 22/26/2 4/27/2 3/28/2
f 3/29/4 2/30/4 23/31/4 21/32/4
f 24/33/5 23/34/5 2/35/5 7/36/5
f 25/37/2 26/38/2 11/39/2 6/40/2
f 19/41/4 20/42/4 5/43/4 15/44/4
f 34/45/1 36/46/1 35/47/1 33/48/1
f 7/49/6 4/50/6 22/51/6 24/52/6
f 29/53/2 30/54/2 14/55/2 8/56/2
f 8/57/4 10/58/4 32/59/4 29/60/4
f 16/61/6 14/62/6 30/63/6 31/64/6
f 31/65/5 32/66/5 10/67/5 16/68/5
f 20/69/5 18/70/5 1/71/5 5/72/5
f 3/3/1 4/12/1 5/14/1 1/1/1
f 17/73/7 18/74/7 20/75/7 19/76/7
f 6/77/4 13/78/4 28/79/4 25/80/4
f 27/81/5 28/82/5 13/83/5 12/84/5
f 38/85/1 40/86/1 39/87/1 37/88/1
f 9/89/6 1/90/6 18/91/6 17/92/6
f 12/93/6 11/94/6 26/95/6 27/96/6
f 6/19/3 11/20/1 7/13/1 2/2/1
